<svg xmlns="http://www.w3.org/2000/svg" viewBox="0 0 270 270">
    <path d="M122 6a130 130 0 00-19 255c14 4 44 5 59 2 47-11 84-46 98-94a153 153 0 00-2-75A129 129 0 00122 6zm35 34c15 3 35 15 47 27a97 97 0 01-26 156 97 97 0 01-140-84c-1-48 30-88 77-99 9-2 32-2 42 0z"/>
    <path d="M85 84c-18 17-18 17 1 37l15 15-14 14c-15 16-18 19-14 25 2 4 23 24 25 25h3c3 1 5-1 20-16l14-14 6 6 6 6v15c0 21 0 22 2 21l1-3c-1-9 0-29 2-28l1 7c0 4 1 5 3 5 1 0 2-1 2-3v-3l3 3c8 7 11 6 26-9 17-17 17-17-2-36l-15-15 14-14c15-16 17-18 15-23-1-5-25-28-29-28-3 0-8 4-19 15l-15 15-16-15c-11-10-16-15-19-15-2 0-7 4-16 13z"/>
</svg>